<?xml version="1.0" encoding="UTF-8"?>
<svg version="1.1" xmlns="http://www.w3.org/2000/svg" width="472" height="346">
<path d="M0 0 C36.06619914 -0.68916304 69.5669241 11.25825595 95.73828125 36.328125 C103.1776653 43.69528202 109.93114343 51.26913422 115.5546875 60.1171875 C116.17859375 61.08398438 116.8025 62.05078125 117.4453125 63.046875 C126.18705438 77.39847486 131.62825422 93.58574901 136.6796875 109.546875 C137.31066032 112.02032953 137.31066032 112.02032953 138.5546875 113.1171875 C138.55024628 111.98903122 138.54580505 110.86087494 138.54122925 109.6985321 C138.50057077 99.03276615 138.47064931 88.36701605 138.45106316 77.70118999 C138.44065502 72.21864767 138.42655036 66.73616824 138.40380859 61.25366211 C138.38197395 55.95629577 138.37009656 50.65898969 138.36493301 45.3615818 C138.36125626 43.34712591 138.35407678 41.33267306 138.34322739 39.31824303 C138.21183371 13.89598394 138.21183371 13.89598394 142.4921875 6.9921875 C151.66871824 -1.35011318 177.7939806 2.93076162 189.36328125 2.9140625 C190.70105576 2.91132039 192.03883005 2.90846351 193.37660408 2.90549469 C199.6519198 2.8918901 205.92722284 2.88218307 212.20255226 2.8782928 C219.41251831 2.87379562 226.62229635 2.85614185 233.83220524 2.8272922 C239.43595143 2.80565512 245.03964469 2.79558784 250.6434322 2.79425168 C253.97859709 2.79320732 257.313442 2.78591169 260.64858818 2.76943207 C264.36019154 2.75238154 268.07133238 2.75424827 271.78295898 2.76074219 C272.87658752 2.7515274 273.97021606 2.74231262 275.09698486 2.7328186 C280.99216025 2.76513534 285.45471179 3.02409456 290.5546875 6.1171875 C293.08824293 9.60383028 293.92971554 12.04623646 293.9289093 16.33177185 C293.93592361 17.36176804 293.94293793 18.39176422 293.95016479 19.45297241 C293.94252106 20.57249298 293.93487732 21.69201355 293.92700195 22.84545898 C293.93065262 24.03314377 293.93430328 25.22082855 293.93806458 26.44450378 C293.94477699 29.69724497 293.9380578 32.94961205 293.92473245 36.20232272 C293.91337718 39.62040141 293.91752921 43.03846608 293.91947937 46.45655823 C293.92036214 52.20570772 293.9092946 57.95473928 293.89086914 63.70385742 C293.86979235 70.31738969 293.86617241 76.93074815 293.8724311 83.54430717 C293.87816501 89.93390437 293.87242626 96.32344134 293.86125755 102.71302986 C293.85665521 105.41719762 293.85571865 108.12132801 293.8578434 110.82549858 C293.85821794 114.62521866 293.84548249 118.42468379 293.8293457 122.22436523 C293.83306183 123.87631897 293.83306183 123.87631897 293.83685303 125.56164551 C293.79002701 132.53699203 293.0963378 139.23057571 291.99695587 146.11944771 C291.49314565 149.53432439 291.39456979 152.79110125 291.53515625 156.23828125 C291.56794678 157.4286499 291.6007373 158.61901855 291.63452148 159.84545898 C291.67005127 161.06950439 291.70558105 162.2935498 291.7421875 163.5546875 C291.91731393 177.10980804 290.23135228 189.1120122 286.5546875 202.1171875 C286.29236328 203.08237305 286.03003906 204.04755859 285.75976562 205.04199219 C282.13654624 218.2706529 277.60904673 230.80859136 271.5546875 243.1171875 C271.05195313 244.15101563 270.54921875 245.18484375 270.03125 246.25 C254.79258848 275.80121654 227.5875612 295.77707916 196.5546875 306.1171875 C161.70027548 316.88349612 123.32946457 314.01509776 90.85546875 297.4609375 C71.64138632 287.21793424 54.24740351 271.48790905 42.5546875 253.1171875 C41.99031982 252.24030273 41.99031982 252.24030273 41.41455078 251.34570312 C32.02794379 236.61606518 25.33177302 221.00260375 21.34375 203.98828125 C20.67071442 200.95065876 20.67071442 200.95065876 18.5546875 198.1171875 C17.8983416 213.9208209 17.47396481 229.70743671 17.34375 245.5234375 C17.32945905 247.10009887 17.31503396 248.67675904 17.30047607 250.25341797 C17.24233575 256.6926676 17.1860793 263.13185303 17.15332031 269.57128906 C17.13239516 273.58601071 17.09719587 277.6003888 17.05256271 281.61491394 C17.0384826 283.12350971 17.02969849 284.63216526 17.02650833 286.14082336 C17.02160273 288.22771943 16.9984842 290.31368418 16.97119141 292.40039062 C16.95906113 294.17113953 16.95906113 294.17113953 16.94668579 295.97766113 C16.50826669 299.48897319 15.72619514 301.33952129 13.5546875 304.1171875 C10.31313853 306.18902565 7.71180469 306.37007245 3.90626526 306.37788391 C2.17974731 306.38851112 2.17974731 306.38851112 0.41835022 306.39935303 C-0.84046463 306.39687561 -2.09927948 306.39439819 -3.39624023 306.3918457 C-4.73845707 306.39619402 -6.08067142 306.40137757 -7.42288208 306.40733337 C-11.06545473 306.42072174 -14.70792362 306.42130224 -18.35051608 306.41877007 C-21.39229577 306.41770026 -24.43405447 306.42258399 -27.47582966 306.4273755 C-34.65227806 306.43847009 -41.82867412 306.43890835 -49.00512695 306.43286133 C-56.40671022 306.42682048 -63.80810343 306.43913538 -71.20965427 306.4604314 C-77.56646068 306.4780484 -83.92320659 306.48404861 -90.28003651 306.48079365 C-94.07577085 306.47898082 -97.87136961 306.4816169 -101.66708183 306.49550819 C-105.23680477 306.50808364 -108.80623147 306.50614537 -112.37594986 306.49309731 C-114.30845664 306.48960414 -116.24097246 306.50091158 -118.17344666 306.51266479 C-119.32727844 306.50565048 -120.48111023 306.49863617 -121.66990662 306.4914093 C-123.17062792 306.49166091 -123.17062792 306.49166091 -124.70166683 306.49191761 C-128.01634039 306.03919589 -129.82226911 305.18999632 -132.4453125 303.1171875 C-134.54926085 299.390027 -134.69636157 296.09694046 -134.69927979 291.86894226 C-134.70491943 290.60938721 -134.71055908 289.34983215 -134.71636963 288.05210876 C-134.71248094 286.66323795 -134.70838459 285.2743677 -134.70410156 283.88549805 C-134.70681327 282.41632921 -134.71037521 280.94716174 -134.71472168 279.47799683 C-134.72384183 275.48710543 -134.72029893 271.49631747 -134.71396351 267.50542426 C-134.70888351 263.30592565 -134.71360218 259.10643563 -134.71673584 254.90693665 C-134.72037728 247.8345075 -134.71557968 240.76212007 -134.70605469 233.68969727 C-134.69524972 225.57448798 -134.69863646 217.45937982 -134.7097075 209.34417313 C-134.71887168 202.34077407 -134.7200193 195.33740498 -134.71483016 188.33400184 C-134.71174967 184.16827075 -134.71118891 180.00258661 -134.71790314 175.83685875 C-134.78767156 125.54246912 -134.78767156 125.54246912 -128.4453125 103.1171875 C-128.21215332 102.29154297 -127.97899414 101.46589844 -127.73876953 100.61523438 C-122.5959947 82.93177167 -115.04115577 66.53241227 -103.4453125 52.1171875 C-102.72601563 51.19679687 -102.00671875 50.27640625 -101.265625 49.328125 C-78.60860179 20.86964948 -48.34268084 5.53924876 -12.61328125 0.5859375 C-8.40805745 0.21260074 -4.21734218 0.14344701 0 0 Z " fill="#ED695C" transform="translate(157.4453125,16.8828125)"/>
<path d="M0 0 C36.06619914 -0.68916304 69.5669241 11.25825595 95.73828125 36.328125 C103.1776653 43.69528202 109.93114343 51.26913422 115.5546875 60.1171875 C116.17859375 61.08398438 116.8025 62.05078125 117.4453125 63.046875 C123.46408311 72.92808502 127.56862039 83.46400607 131.52050781 94.31298828 C132.44774062 96.82719887 133.42674092 99.31294604 134.421875 101.80078125 C139.41360159 114.97351334 139.36837014 128.0872932 139.47509766 142.04443359 C139.57244992 145.80294781 139.9768205 149.40496991 140.5546875 153.1171875 C135.05686558 156.57180665 130.36697787 156.55304101 124.08642578 156.53369141 C123.04501434 156.54227676 122.00360291 156.55086212 120.93063354 156.55970764 C117.49535336 156.58475649 114.06036315 156.58914676 110.625 156.59375 C108.23134483 156.60806516 105.8376979 156.6238231 103.44406128 156.64096069 C97.14416137 156.68281343 90.84431244 156.70780506 84.54431152 156.72845459 C74.46803253 156.76426057 64.39187982 156.82542913 54.31573105 156.88694382 C50.8016436 156.90597038 47.28758973 156.91774775 43.77346802 156.92837524 C41.6095574 156.93859267 39.44564744 156.94895103 37.28173828 156.95947266 C35.82420135 156.96103615 35.82420135 156.96103615 34.33721924 156.96263123 C25.38579858 156.44409605 25.38579858 156.44409605 17.5546875 159.1171875 C17.44130379 161.66403328 17.39050975 164.18272489 17.38671875 166.73046875 C17.38339035 167.49642868 17.38006195 168.26238861 17.37663269 169.05155945 C17.37155919 170.67653807 17.36922449 172.30152714 17.36938477 173.92651367 C17.36720578 176.40886768 17.34907576 178.89077204 17.33007812 181.37304688 C17.32714276 182.95051931 17.32515892 184.52799386 17.32421875 186.10546875 C17.31344048 187.21816887 17.31344048 187.21816887 17.30244446 188.35334778 C17.31897708 192.09981339 17.46458875 194.93777297 19.5546875 198.1171875 C19.2246875 198.1171875 18.8946875 198.1171875 18.5546875 198.1171875 C17.8983416 213.9208209 17.47396481 229.70743671 17.34375 245.5234375 C17.32945905 247.10009887 17.31503396 248.67675904 17.30047607 250.25341797 C17.24233575 256.6926676 17.1860793 263.13185303 17.15332031 269.57128906 C17.13239516 273.58601071 17.09719587 277.6003888 17.05256271 281.61491394 C17.0384826 283.12350971 17.02969849 284.63216526 17.02650833 286.14082336 C17.02160273 288.22771943 16.9984842 290.31368418 16.97119141 292.40039062 C16.95906113 294.17113953 16.95906113 294.17113953 16.94668579 295.97766113 C16.50826669 299.48897319 15.72619514 301.33952129 13.5546875 304.1171875 C10.31313853 306.18902565 7.71180469 306.37007245 3.90626526 306.37788391 C2.17974731 306.38851112 2.17974731 306.38851112 0.41835022 306.39935303 C-0.84046463 306.39687561 -2.09927948 306.39439819 -3.39624023 306.3918457 C-4.73845707 306.39619402 -6.08067142 306.40137757 -7.42288208 306.40733337 C-11.06545473 306.42072174 -14.70792362 306.42130224 -18.35051608 306.41877007 C-21.39229577 306.41770026 -24.43405447 306.42258399 -27.47582966 306.4273755 C-34.65227806 306.43847009 -41.82867412 306.43890835 -49.00512695 306.43286133 C-56.40671022 306.42682048 -63.80810343 306.43913538 -71.20965427 306.4604314 C-77.56646068 306.4780484 -83.92320659 306.48404861 -90.28003651 306.48079365 C-94.07577085 306.47898082 -97.87136961 306.4816169 -101.66708183 306.49550819 C-105.23680477 306.50808364 -108.80623147 306.50614537 -112.37594986 306.49309731 C-114.30845664 306.48960414 -116.24097246 306.50091158 -118.17344666 306.51266479 C-119.32727844 306.50565048 -120.48111023 306.49863617 -121.66990662 306.4914093 C-123.17062792 306.49166091 -123.17062792 306.49166091 -124.70166683 306.49191761 C-128.01634039 306.03919589 -129.82226911 305.18999632 -132.4453125 303.1171875 C-134.54926085 299.390027 -134.69636157 296.09694046 -134.69927979 291.86894226 C-134.70491943 290.60938721 -134.71055908 289.34983215 -134.71636963 288.05210876 C-134.71248094 286.66323795 -134.70838459 285.2743677 -134.70410156 283.88549805 C-134.70681327 282.41632921 -134.71037521 280.94716174 -134.71472168 279.47799683 C-134.72384183 275.48710543 -134.72029893 271.49631747 -134.71396351 267.50542426 C-134.70888351 263.30592565 -134.71360218 259.10643563 -134.71673584 254.90693665 C-134.72037728 247.8345075 -134.71557968 240.76212007 -134.70605469 233.68969727 C-134.69524972 225.57448798 -134.69863646 217.45937982 -134.7097075 209.34417313 C-134.71887168 202.34077407 -134.7200193 195.33740498 -134.71483016 188.33400184 C-134.71174967 184.16827075 -134.71118891 180.00258661 -134.71790314 175.83685875 C-134.78767156 125.54246912 -134.78767156 125.54246912 -128.4453125 103.1171875 C-128.21215332 102.29154297 -127.97899414 101.46589844 -127.73876953 100.61523438 C-122.5959947 82.93177167 -115.04115577 66.53241227 -103.4453125 52.1171875 C-102.72601563 51.19679687 -102.00671875 50.27640625 -101.265625 49.328125 C-78.60860179 20.86964948 -48.34268084 5.53924876 -12.61328125 0.5859375 C-8.40805745 0.21260074 -4.21734218 0.14344701 0 0 Z " fill="#3BA4F2" transform="translate(157.4453125,16.8828125)"/>
<path d="M0 0 C1.33777451 -0.00274211 2.6755488 -0.00559899 4.01332283 -0.00856781 C10.28863855 -0.0221724 16.56394159 -0.03187943 22.83927101 -0.0357697 C30.04923706 -0.04026688 37.2590151 -0.05792065 44.46892399 -0.0867703 C50.07267018 -0.10840738 55.67636344 -0.11847466 61.28015095 -0.11981082 C64.61531584 -0.12085518 67.95016075 -0.12815081 71.28530693 -0.14463043 C74.99691029 -0.16168096 78.70805113 -0.15981423 82.41967773 -0.15332031 C83.51330627 -0.1625351 84.60693481 -0.17174988 85.73370361 -0.1812439 C91.628879 -0.14892716 96.09143054 0.11003206 101.19140625 3.203125 C103.72496168 6.68976778 104.56643429 9.13217396 104.56562805 13.41770935 C104.57264236 14.44770554 104.57965668 15.47770172 104.58688354 16.53890991 C104.57923981 17.65843048 104.57159607 18.77795105 104.5637207 19.93139648 C104.56737137 21.11908127 104.57102203 22.30676605 104.57478333 23.53044128 C104.58149574 26.78318247 104.57477655 30.03554955 104.5614512 33.28826022 C104.55009593 36.70633891 104.55424796 40.12440358 104.55619812 43.54249573 C104.55708089 49.29164522 104.54601335 55.04067678 104.52758789 60.78979492 C104.5065111 67.40332719 104.50289116 74.01668565 104.50914985 80.63024467 C104.51488376 87.01984187 104.50914501 93.40937884 104.4979763 99.79896736 C104.49337396 102.50313512 104.4924374 105.20726551 104.49456215 107.91143608 C104.49493669 111.71115616 104.48220124 115.51062129 104.46606445 119.31030273 C104.46854187 120.41160522 104.47101929 121.51290771 104.47357178 122.64758301 C104.42682965 129.61043279 103.73738217 136.2930067 102.64142323 143.16974163 C102.08994207 146.88705418 101.96285163 150.3764527 101.99609375 154.1328125 C102.00253906 155.44121094 102.00898438 156.74960938 102.015625 158.09765625 C102.03238281 159.41121094 102.04914063 160.72476563 102.06640625 162.078125 C102.07647599 163.45962878 102.08559465 164.84113984 102.09375 166.22265625 C102.11701585 169.54967232 102.14970061 172.87629785 102.19140625 176.203125 C101.86140625 176.203125 101.53140625 176.203125 101.19140625 176.203125 C101.13082031 175.09453125 101.07023438 173.9859375 101.0078125 172.84375 C100.92337674 171.3801968 100.83873026 169.91665575 100.75390625 168.453125 C100.71458984 167.72351563 100.67527344 166.99390625 100.63476562 166.2421875 C100.42993527 162.7758277 100.10620605 159.54979474 99.19140625 156.203125 C98.53140625 156.203125 97.87140625 156.203125 97.19140625 156.203125 C97.19140625 155.543125 97.19140625 154.883125 97.19140625 154.203125 C96.50579211 154.19889306 95.82017797 154.19466112 95.11378765 154.19030094 C78.39445333 154.08678115 61.67516109 153.97811255 44.95589733 153.86378574 C36.87043323 153.80861994 28.78496472 153.75516628 20.69946289 153.70581055 C13.64822568 153.66276378 6.59701876 153.61643599 -0.45417136 153.56624645 C-4.18414207 153.53980947 -7.91410742 153.51496243 -11.64411354 153.49405098 C-15.81853294 153.47058633 -19.99286866 153.43979321 -24.16723633 153.40844727 C-25.39003799 153.4026918 -26.61283966 153.39693634 -27.87269592 153.39100647 C-34.13892722 153.33771604 -40.29257013 153.07156145 -46.5218153 152.37193203 C-49.40540049 152.1590695 -52.00588402 152.5213848 -54.80859375 153.203125 C-52.80859375 151.203125 -52.80859375 151.203125 -49.80859375 150.203125 C-49.96070313 149.21183594 -50.1128125 148.22054687 -50.26953125 147.19921875 C-51.0474477 140.96351744 -51.1724795 134.68522043 -51.36621094 128.40991211 C-51.43420071 126.24630991 -51.51173898 124.08317996 -51.58984375 121.91992188 C-51.63468736 120.54689359 -51.67897876 119.17384713 -51.72265625 117.80078125 C-51.76342285 116.55820557 -51.80418945 115.31562988 -51.84619141 114.03540039 C-51.80859375 111.203125 -51.80859375 111.203125 -50.80859375 110.203125 C-50.7240027 107.40002972 -50.70430853 104.62182966 -50.72680664 101.81884766 C-50.73140648 100.49913971 -50.73140648 100.49913971 -50.73609924 99.152771 C-50.74327482 97.23370086 -50.75267529 95.31463809 -50.76399422 93.39558792 C-50.7813409 90.35123458 -50.79167175 87.3069335 -50.7999115 84.26254272 C-50.82438964 75.60320067 -50.8596769 66.94392807 -50.90454102 58.28466797 C-50.93146353 52.99264368 -50.948419 47.70066096 -50.95940971 42.40858078 C-50.96558767 40.39691011 -50.9755526 38.38524715 -50.9894886 36.37361526 C-51.1635092 11.00137572 -51.1635092 11.00137572 -46.87109375 4.078125 C-37.69456301 -4.26417568 -11.56930065 0.01669912 0 0 Z " fill="#EFB862" transform="translate(346.80859375,19.796875)"/>
<path d="M0 0 C0.33 0 0.66 0 1 0 C1.02730462 1.87491693 1.04653244 3.74995225 1.0625 5.625 C1.07410156 6.66914062 1.08570313 7.71328125 1.09765625 8.7890625 C1.00117695 11.96130189 0.52813987 14.8741944 0 18 C-0.28648057 21.50074878 -0.4376755 25.00945636 -0.60546875 28.51757812 C-0.89620536 33.89620536 -0.89620536 33.89620536 -2 35 C-2.15582303 36.34015221 -2.25044142 37.68758903 -2.31640625 39.03515625 C-2.35830078 39.84404297 -2.40019531 40.65292969 -2.44335938 41.48632812 C-2.48267578 42.33646484 -2.52199219 43.18660156 -2.5625 44.0625 C-2.60568359 44.91650391 -2.64886719 45.77050781 -2.69335938 46.65039062 C-2.79976702 48.76672037 -2.90041731 50.88333813 -3 53 C-2.02423004 52.99738159 -1.04846008 52.99476318 -0.04312134 52.99206543 C30.62330634 52.91818042 61.28389534 53.15741912 91.9486084 53.46356201 C98.18577662 53.52538074 104.42296739 53.58483818 110.66015625 53.64453125 C122.77345984 53.76079126 134.88673754 53.87953651 147 54 C146.67 54.66 146.34 55.32 146 56 C145.88902862 58.5793852 145.83589692 61.13094197 145.83203125 63.7109375 C145.82870285 64.47548248 145.82537445 65.24002747 145.82194519 66.02774048 C145.81687878 67.64674274 145.81453678 69.26575545 145.81469727 70.88476562 C145.81251478 73.35824893 145.79436752 75.83128338 145.77539062 78.3046875 C145.77245582 79.87760264 145.77047161 81.4505199 145.76953125 83.0234375 C145.76234573 83.76210052 145.75516022 84.50076355 145.74775696 85.2618103 C145.76433359 89.00085882 145.91676096 91.826376 148 95 C147.67 95 147.34 95 147 95 C146.3436541 110.8036334 145.91927731 126.59024921 145.7890625 142.40625 C145.77477155 143.98291137 145.76034646 145.55957154 145.74578857 147.13623047 C145.68764825 153.5754801 145.6313918 160.01466553 145.59863281 166.45410156 C145.57770766 170.46882321 145.54250837 174.4832013 145.49787521 178.49772644 C145.4837951 180.00632221 145.47501099 181.51497776 145.47182083 183.02363586 C145.46691523 185.11053193 145.4437967 187.19649668 145.41650391 189.28320312 C145.40437363 191.05395203 145.40437363 191.05395203 145.39199829 192.86047363 C144.95357919 196.37178569 144.17150764 198.22233379 142 201 C138.75845103 203.07183815 136.15711719 203.25288495 132.35157776 203.26069641 C131.2005658 203.26778122 130.04955383 203.27486603 128.86366272 203.28216553 C127.60484787 203.27968811 126.34603302 203.27721069 125.04907227 203.2746582 C123.70685543 203.27900652 122.36464108 203.28419007 121.02243042 203.29014587 C117.37985777 203.30353424 113.73738888 203.30411474 110.09479642 203.30158257 C107.05301673 203.30051276 104.01125803 203.30539649 100.96948284 203.310188 C93.79303444 203.32128259 86.61663838 203.32172085 79.44018555 203.31567383 C72.03860228 203.30963298 64.63720907 203.32194788 57.23565823 203.3432439 C50.87885182 203.3608609 44.52210591 203.36686111 38.16527599 203.36360615 C34.36954165 203.36179332 30.57394289 203.3644294 26.77823067 203.37832069 C23.20850773 203.39089614 19.63908103 203.38895787 16.06936264 203.37590981 C14.13685586 203.37241664 12.20434004 203.38372408 10.27186584 203.39547729 C9.11803406 203.38846298 7.96420227 203.38144867 6.77540588 203.3742218 C5.27468458 203.37447341 5.27468458 203.37447341 3.74364567 203.37473011 C0.42897211 202.92200839 -1.37695661 202.07280882 -4 200 C-6.10394835 196.2728395 -6.25104907 192.97975296 -6.25396729 188.75175476 C-6.25960693 187.49219971 -6.26524658 186.23264465 -6.27105713 184.93492126 C-6.26716844 183.54605045 -6.26307209 182.1571802 -6.25878906 180.76831055 C-6.26150077 179.29914171 -6.26506271 177.82997424 -6.26940918 176.36080933 C-6.27852933 172.36991793 -6.27498643 168.37912997 -6.26865101 164.38823676 C-6.26357101 160.18873815 -6.26828968 155.98924813 -6.27142334 151.78974915 C-6.27506478 144.71732 -6.27026718 137.64493257 -6.26074219 130.57250977 C-6.24993722 122.45730048 -6.25332396 114.34219232 -6.264395 106.22698563 C-6.27355918 99.22358657 -6.2747068 92.22021748 -6.26951766 85.21681434 C-6.26643717 81.05108325 -6.26587641 76.88539911 -6.27259064 72.71967125 C-6.30660203 48.15252338 -6.22431939 23.93039298 0 0 Z " fill="#57D49C" transform="translate(29,120)"/>
<path d="M0 0 C0.33 0 0.66 0 1 0 C1.02730462 1.87491693 1.04653244 3.74995225 1.0625 5.625 C1.07410156 6.66914062 1.08570313 7.71328125 1.09765625 8.7890625 C1.00117695 11.96130189 0.52813987 14.8741944 0 18 C-0.28648057 21.50074878 -0.4376755 25.00945636 -0.60546875 28.51757812 C-0.89620536 33.89620536 -0.89620536 33.89620536 -2 35 C-2.15582303 36.34015221 -2.25044142 37.68758903 -2.31640625 39.03515625 C-2.35830078 39.84404297 -2.40019531 40.65292969 -2.44335938 41.48632812 C-2.48267578 42.33646484 -2.52199219 43.18660156 -2.5625 44.0625 C-2.60568359 44.91650391 -2.64886719 45.77050781 -2.69335938 46.65039062 C-2.79976702 48.76672037 -2.90041731 50.88333813 -3 53 C-2.02423004 52.99738159 -1.04846008 52.99476318 -0.04312134 52.99206543 C30.62330634 52.91818042 61.28389534 53.15741912 91.9486084 53.46356201 C98.18577662 53.52538074 104.42296739 53.58483818 110.66015625 53.64453125 C122.77345984 53.76079126 134.88673754 53.87953651 147 54 C146.67 54.66 146.34 55.32 146 56 C96.5 56 47 56 -4 56 C-3.855625 78.666875 -3.71125 101.33375 -3.5625 124.6875 C-3.51939697 131.84655029 -3.47629395 139.00560059 -3.43188477 146.3815918 C-3.38863505 152.79484238 -3.38863505 152.79484238 -3.34410095 159.20808411 C-3.3242885 162.06618796 -3.30719156 164.92429427 -3.29173279 167.78242493 C-3.27192294 171.42859967 -3.24748243 175.07471582 -3.21969402 178.72083819 C-3.20584744 180.68972752 -3.19674845 182.65864849 -3.18783665 184.62756634 C-3.17806262 185.79317498 -3.16828859 186.95878363 -3.15821838 188.15971375 C-3.15176583 189.17276423 -3.14531328 190.18581472 -3.1386652 191.22956371 C-3.00419525 193.91618177 -2.60103284 196.38183096 -2 199 C-2.66 199.33 -3.32 199.66 -4 200 C-5.81760036 196.10395819 -6.25101018 193.03610603 -6.25396729 188.75175476 C-6.25960693 187.49219971 -6.26524658 186.23264465 -6.27105713 184.93492126 C-6.26716844 183.54605045 -6.26307209 182.1571802 -6.25878906 180.76831055 C-6.26150077 179.29914171 -6.26506271 177.82997424 -6.26940918 176.36080933 C-6.27852933 172.36991793 -6.27498643 168.37912997 -6.26865101 164.38823676 C-6.26357101 160.18873815 -6.26828968 155.98924813 -6.27142334 151.78974915 C-6.27506478 144.71732 -6.27026718 137.64493257 -6.26074219 130.57250977 C-6.24993722 122.45730048 -6.25332396 114.34219232 -6.264395 106.22698563 C-6.27355918 99.22358657 -6.2747068 92.22021748 -6.26951766 85.21681434 C-6.26643717 81.05108325 -6.26587641 76.88539911 -6.27259064 72.71967125 C-6.30660203 48.15252338 -6.22431939 23.93039298 0 0 Z " fill="#4BBCC4" transform="translate(29,120)"/>
<path d="M0 0 C1.33777451 -0.00274211 2.6755488 -0.00559899 4.01332283 -0.00856781 C10.28863855 -0.0221724 16.56394159 -0.03187943 22.83927101 -0.0357697 C30.04923706 -0.04026688 37.2590151 -0.05792065 44.46892399 -0.0867703 C50.07267018 -0.10840738 55.67636344 -0.11847466 61.28015095 -0.11981082 C64.61531584 -0.12085518 67.95016075 -0.12815081 71.28530693 -0.14463043 C74.99691029 -0.16168096 78.70805113 -0.15981423 82.41967773 -0.15332031 C83.51330627 -0.1625351 84.60693481 -0.17174988 85.73370361 -0.1812439 C91.628879 -0.14892716 96.09143054 0.11003206 101.19140625 3.203125 C105.55269047 7.67199261 104.61158179 13.98802285 104.57958984 19.83618164 C104.58747528 21.60325218 104.58747528 21.60325218 104.59552002 23.40602112 C104.60645706 26.6343627 104.60389351 29.86233485 104.59438276 33.09067082 C104.58675435 36.48993372 104.59384301 39.88917295 104.59854126 43.28843689 C104.60400074 49.01240417 104.59681387 54.73625543 104.58251953 60.46020508 C104.56630955 67.02594996 104.5713949 73.59141362 104.58799875 80.15715128 C104.60174933 85.82633161 104.60346456 91.49542866 104.59568274 97.16462034 C104.59106458 100.53550736 104.59143451 103.90616087 104.60029221 107.27705574 C104.63155694 122.53915805 104.0618691 137.19072024 101.19140625 152.203125 C100.20140625 151.873125 99.21140625 151.543125 98.19140625 151.203125 C98.19140625 150.543125 98.19140625 149.883125 98.19140625 149.203125 C97.20140625 149.203125 96.21140625 149.203125 95.19140625 149.203125 C95.52140625 147.883125 95.85140625 146.563125 96.19140625 145.203125 C96.85140625 145.203125 97.51140625 145.203125 98.19140625 145.203125 C98.52140625 143.553125 98.85140625 141.903125 99.19140625 140.203125 C99.85140625 140.203125 100.51140625 140.203125 101.19140625 140.203125 C101.23813075 123.3395933 101.2733973 106.47608181 101.29503059 89.61250019 C101.30534237 81.78241626 101.31940082 73.95237256 101.34228516 66.12231445 C101.36222205 59.29749324 101.37512341 52.47270117 101.37958324 45.64785165 C101.38219011 42.0342795 101.38831535 38.42079069 101.40286636 34.80724525 C101.41897999 30.77290782 101.41938574 26.73871521 101.41845703 22.7043457 C101.42924286 20.90791626 101.42924286 20.90791626 101.44024658 19.07519531 C101.43612259 17.42412529 101.43612259 17.42412529 101.43191528 15.73970032 C101.43375887 14.78564458 101.43560246 13.83158884 101.43750191 12.84862232 C101.1706646 9.98015488 100.38437963 7.81196232 99.19140625 5.203125 C97.87140625 5.203125 96.55140625 5.203125 95.19140625 5.203125 C95.19140625 4.213125 95.19140625 3.223125 95.19140625 2.203125 C77.54552086 2.31037254 59.8996805 2.42313548 42.25387287 2.54246426 C34.06062038 2.59774207 25.86736354 2.65121509 17.67407227 2.70043945 C10.53279843 2.74334799 3.39155594 2.78964274 -3.74966937 2.84000355 C-7.53086878 2.86655079 -11.31206219 2.89140242 -15.09329796 2.91219902 C-18.65305588 2.93183101 -22.21275442 2.95599412 -25.77245903 2.98361588 C-27.70020411 2.99739955 -29.62798157 3.00639371 -31.55575562 3.01524353 C-32.70695389 3.02503235 -33.85815216 3.03482117 -35.04423523 3.04490662 C-36.04253703 3.05135917 -37.04083883 3.05781172 -38.0693922 3.0644598 C-40.74382318 3.19984615 -43.20183014 3.60603758 -45.80859375 4.203125 C-44.80859375 2.203125 -44.80859375 2.203125 -41.80859375 1.203125 C-28.023519 -0.58979367 -13.86564771 0.02001367 0 0 Z " fill="#F2DDB2" transform="translate(346.80859375,19.796875)"/>
<path d="M0 0 C11.29508392 11.29508392 10.9576789 35.06902507 10.96484375 49.75390625 C10.96081543 50.8330127 10.95678711 51.91211914 10.95263672 53.02392578 C11.01204989 56.75715576 11.42145927 60.31464997 12 64 C6.38628875 67.607864 1.21304289 67.44120489 -5.32958984 67.43237305 C-6.46188019 67.4425647 -7.59417053 67.45275635 -8.76077271 67.46325684 C-12.49421128 67.49339172 -16.22739327 67.50265386 -19.9609375 67.51171875 C-22.55311944 67.528565 -25.1452932 67.54671517 -27.73745728 67.56611633 C-33.85712512 67.6087748 -39.97672664 67.63830598 -46.09649527 67.66143972 C-53.06635067 67.68852229 -60.03606864 67.73243182 -67.00582576 67.77772844 C-81.33713985 67.87049238 -95.66850434 67.94221079 -110 68 C-110 67.67 -110 67.34 -110 67 C-108.35 67 -106.7 67 -105 67 C-105 66.34 -105 65.68 -105 65 C-104.45500319 64.99576806 -103.91000639 64.99153612 -103.34849453 64.98717594 C-90.06877666 64.88373353 -76.78911092 64.77501618 -63.50948238 64.66066074 C-57.08747478 64.6055173 -50.66546256 64.5521111 -44.2434082 64.50268555 C-38.04477109 64.45491537 -31.84618791 64.40256817 -25.64761543 64.34705925 C-23.28378202 64.32669297 -20.91993384 64.30797061 -18.55607414 64.29092598 C-15.24297637 64.26675495 -11.92997946 64.23671803 -8.61694336 64.20532227 C-7.64158127 64.1995668 -6.66621918 64.19381134 -5.66130066 64.18788147 C-0.67392888 64.13422889 4.08239491 63.8446136 9 63 C8.76228882 61.47814087 8.76228882 61.47814087 8.51977539 59.92553711 C8.04228545 56.31935545 7.80079311 52.82458638 7.68359375 49.19140625 C7.64169922 47.95068359 7.59980469 46.70996094 7.55664062 45.43164062 C7.51732422 44.15482422 7.47800781 42.87800781 7.4375 41.5625 C7.39431641 40.25861328 7.35113281 38.95472656 7.30664062 37.61132812 C7.20102476 34.40764684 7.09891899 31.20389389 7 28 C6.34 27.67 5.68 27.34 5 27 C5 24.69 5 22.38 5 20 C4.01 20 3.02 20 2 20 C1.93941406 19.05898437 1.87882812 18.11796875 1.81640625 17.1484375 C1.73261719 15.90320313 1.64882813 14.65796875 1.5625 13.375 C1.48128906 12.14523438 1.40007812 10.91546875 1.31640625 9.6484375 C1.03336056 6.38467612 0.58961047 3.22056141 0 0 Z " fill="#6398CC" transform="translate(286,106)"/>
<path d="M0 0 C0.625 1.75 0.625 1.75 1 4 C0.68227851 4.58792517 0.36455702 5.17585033 0.0372076 5.78159142 C-1.27321043 8.58435009 -1.2377345 10.65408695 -1.22032166 13.74453735 C-1.2187355 14.9167131 -1.21714935 16.08888885 -1.21551514 17.29658508 C-1.20361145 18.57881454 -1.19170776 19.86104401 -1.17944336 21.18212891 C-1.17396672 22.54891127 -1.16941738 23.91569761 -1.16572571 25.28248596 C-1.15602095 28.22305625 -1.1401999 31.16350791 -1.11976433 34.10402298 C-1.08795458 38.75075839 -1.07245817 43.39745943 -1.05970764 48.04428101 C-1.02562345 59.58316025 -0.97287086 71.12194517 -0.9105835 82.66070557 C-0.86218293 91.63343556 -0.82008054 100.60608195 -0.79907519 109.57892358 C-0.78752772 114.2015328 -0.76207149 118.82379542 -0.72632778 123.44627786 C-0.70718726 126.31657559 -0.70046094 129.18680192 -0.69726372 132.05715752 C-0.69130414 134.02965242 -0.67031347 136.00208377 -0.6489563 137.97447205 C-0.65018997 139.14100815 -0.65142365 140.30754425 -0.6526947 141.50942993 C-0.64733169 142.52742487 -0.64196867 143.54541981 -0.63644314 144.59426308 C-0.81640378 145.78510285 -0.81640378 145.78510285 -1 147 C-4 149 -4 149 -6.1875 148.625 C-6.785625 148.41875 -7.38375 148.2125 -8 148 C-5.525 147.01 -5.525 147.01 -3 146 C-3.15210938 145.00871094 -3.30421875 144.01742187 -3.4609375 142.99609375 C-4.23885395 136.76039244 -4.36388575 130.48209543 -4.55761719 124.20678711 C-4.62560696 122.04318491 -4.70314523 119.88005496 -4.78125 117.71679688 C-4.82609361 116.34376859 -4.87038501 114.97072213 -4.9140625 113.59765625 C-4.9548291 112.35508057 -4.9955957 111.11250488 -5.03759766 109.83227539 C-5 107 -5 107 -4 106 C-3.91540895 103.19690472 -3.89571478 100.41870466 -3.91821289 97.61572266 C-3.92281273 96.29601471 -3.92281273 96.29601471 -3.92750549 94.949646 C-3.93468107 93.03057586 -3.94408154 91.11151309 -3.95540047 89.19246292 C-3.97274715 86.14810958 -3.983078 83.1038085 -3.99131775 80.05941772 C-4.01579589 71.40007567 -4.05108315 62.74080307 -4.09594727 54.08154297 C-4.12286978 48.78951868 -4.13982525 43.49753596 -4.15081596 38.20545578 C-4.15699392 36.19378511 -4.16695885 34.18212215 -4.18089485 32.17049026 C-4.35672045 6.53508068 -4.35672045 6.53508068 0 0 Z " fill="#CCB88C" transform="translate(300,24)"/>
<path d="M0 0 C0.99 0.495 0.99 0.495 2 1 C0.53308403 5.64523389 0.53308403 5.64523389 -1.72467804 7.14776897 C-4.49508306 8.18543536 -6.69567773 8.25462951 -9.65515137 8.26069641 C-11.38383705 8.27132362 -11.38383705 8.27132362 -13.14744568 8.28216553 C-14.40783157 8.27968811 -15.66821747 8.27721069 -16.96679688 8.2746582 C-18.31063622 8.27900647 -19.65447309 8.28419001 -20.99830627 8.29014587 C-24.64494386 8.30353348 -28.29147778 8.30411492 -31.93813515 8.30158257 C-34.98249442 8.3005129 -38.02683272 8.30539604 -41.0711875 8.310188 C-48.25238966 8.32128192 -55.43353951 8.32172095 -62.61474609 8.31567383 C-70.02430165 8.30963042 -77.43366748 8.32195452 -84.84319067 8.3432439 C-91.20507694 8.36085134 -97.56690276 8.3668627 -103.9288125 8.36360615 C-107.72842728 8.36179209 -111.52790666 8.36444181 -115.32749939 8.37832069 C-118.89968157 8.39088091 -122.4715675 8.38897236 -126.04374504 8.37590981 C-127.98002262 8.37241056 -129.91630918 8.38373474 -131.85255432 8.39547729 C-133.00501144 8.38846298 -134.15746857 8.38144867 -135.34484863 8.3742218 C-136.84695263 8.37447341 -136.84695263 8.37447341 -138.37940216 8.37473011 C-141 8 -141 8 -145 5 C-97.81 5 -50.62 5 -2 5 C-2 4.01 -2 3.02 -2 2 C-1.34 2 -0.68 2 0 2 C0 1.34 0 0.68 0 0 Z " fill="#84D4B1" transform="translate(171,315)"/>
<path d="M0 0 C0.33 0 0.66 0 1 0 C1.00423194 0.71691356 1.00846388 1.43382711 1.01282406 2.17246532 C1.11612411 19.6157272 1.22476094 37.05894765 1.33933926 54.50213909 C1.3946197 62.93752862 1.44809316 71.37292237 1.49731445 79.80834961 C1.54021976 87.16057356 1.58651371 94.51276703 1.63687855 101.8649438 C1.66342838 105.7579262 1.68828009 109.65090276 1.70907402 113.54392052 C1.72870258 117.20873671 1.75286472 120.87349515 1.78049088 124.53825951 C1.794278 126.52325867 1.80326987 128.50828933 1.81211853 130.49331665 C1.82190735 131.67817154 1.83169617 132.86302643 1.84178162 134.08378601 C1.84823417 135.11158519 1.85468672 136.13938437 1.8613348 137.19832897 C1.99490947 139.89714808 2.39500345 142.37042245 3 145 C2.34 145.33 1.68 145.66 1 146 C-0.71501617 142.26907446 -1.24948727 139.36403778 -1.24723816 135.26928711 C-1.25143265 134.12531464 -1.25562714 132.98134216 -1.25994873 131.80270386 C-1.25432922 130.55683502 -1.24870972 129.31096619 -1.24291992 128.02734375 C-1.24481827 126.70815948 -1.24671661 125.38897522 -1.24867249 124.02981567 C-1.2535118 120.41827467 -1.24587645 116.8068576 -1.23571944 113.19533157 C-1.22692274 109.41269323 -1.22869671 105.63005859 -1.2290802 101.84741211 C-1.22814421 95.49558443 -1.21946931 89.14380458 -1.20581055 82.79199219 C-1.19008575 75.45236603 -1.1848125 68.11279223 -1.1855461 60.77315044 C-1.18622207 52.95366367 -1.17927791 45.13419703 -1.1700995 37.31471634 C-1.16797014 35.06396661 -1.16725858 32.81322013 -1.16686058 30.56246948 C-1.16566764 26.36584003 -1.15594816 22.16927226 -1.14526367 17.97265625 C-1.14571686 16.72678741 -1.14617004 15.48091858 -1.14663696 14.19729614 C-1.14237198 13.05332367 -1.13810699 11.9093512 -1.13371277 10.73071289 C-1.13203692 9.73890518 -1.13036108 8.74709747 -1.12863445 7.72523499 C-1.00249695 5.05290005 -0.59770553 2.60388948 0 0 Z " fill="#A7E5C9" transform="translate(24,174)"/>
<path d="M0 0 C23.3360185 -0.42293424 56.37681847 3.03767838 74.29833984 19.76293945 C74.70777832 20.21113037 75.1172168 20.65932129 75.5390625 21.12109375 C74.0540625 21.61609375 74.0540625 21.61609375 72.5390625 22.12109375 C72.5390625 21.46109375 72.5390625 20.80109375 72.5390625 20.12109375 C71.2396875 19.99734375 69.9403125 19.87359375 68.6015625 19.74609375 C66.38671875 19.53515625 66.38671875 19.53515625 64.5390625 19.12109375 C64.0440625 18.13109375 64.0440625 18.13109375 63.5390625 17.12109375 C62.0540625 16.62609375 62.0540625 16.62609375 60.5390625 16.12109375 C60.5390625 15.46109375 60.5390625 14.80109375 60.5390625 14.12109375 C59.45625 13.90453125 59.45625 13.90453125 58.3515625 13.68359375 C55.74739583 13.16276042 53.14322917 12.64192708 50.5390625 12.12109375 C50.5390625 12.45109375 50.5390625 12.78109375 50.5390625 13.12109375 C48.8890625 13.12109375 47.2390625 13.12109375 45.5390625 13.12109375 C45.8690625 11.80109375 46.1990625 10.48109375 46.5390625 9.12109375 C45.9821875 9.08371094 45.4253125 9.04632813 44.8515625 9.0078125 C40.88660771 8.666237 37.35956481 8.20166316 33.6640625 6.68359375 C24.2298367 2.86908167 14.28470906 2.80073836 4.25708008 2.86035156 C2.08061652 2.87119814 -0.09504374 2.86033123 -2.27148438 2.84765625 C-3.66666847 2.84897592 -5.06185208 2.85153432 -6.45703125 2.85546875 C-7.70669678 2.85772461 -8.9563623 2.85998047 -10.24389648 2.86230469 C-13.310668 3.10900559 -14.85936861 3.60513504 -17.4609375 5.12109375 C-20.1171875 5.5 -20.1171875 5.5 -22.9609375 5.68359375 C-26.84239811 5.92955729 -26.84239811 5.92955729 -30.6171875 6.7734375 C-32.4609375 7.12109375 -32.4609375 7.12109375 -35.4609375 5.12109375 C-23.57393414 2.42235487 -12.20942306 0.427192 0 0 Z " fill="#5FAEE4" transform="translate(157.4609375,16.87890625)"/>
<path d="M0 0 C0.75049212 0.062658 1.50098425 0.12531601 2.27421856 0.18987274 C4.4761408 3.4927561 4.51381824 4.46450001 4.46953106 8.29534149 C4.45986309 9.76970673 4.45986309 9.76970673 4.44999981 11.27385712 C4.42486309 12.81009735 4.42486309 12.81009735 4.39921856 14.37737274 C4.39019512 15.41313446 4.38117168 16.44889618 4.37187481 17.51604462 C4.34829716 20.07421959 4.31538886 22.63193022 4.27421856 25.18987274 C3.94421856 25.18987274 3.61421856 25.18987274 3.27421856 25.18987274 C3.21363262 24.08127899 3.15304668 22.97268524 3.09062481 21.83049774 C3.00618905 20.36694454 2.92154257 18.90340349 2.83671856 17.43987274 C2.79740215 16.71026337 2.75808575 15.98065399 2.71757793 15.22893524 C2.51274758 11.76257545 2.18901836 8.53654249 1.27421856 5.18987274 C0.61421856 5.18987274 -0.04578144 5.18987274 -0.72578144 5.18987274 C-0.72578144 4.52987274 -0.72578144 3.86987274 -0.72578144 3.18987274 C-44.94578144 2.85987274 -89.16578144 2.52987274 -134.72578144 2.18987274 C-134.72578144 1.85987274 -134.72578144 1.52987274 -134.72578144 1.18987274 C-117.60147397 1.05925823 -100.47716486 0.92886068 -83.35285378 0.79872131 C-75.40172276 0.73829017 -67.45059229 0.67778806 -59.49946308 0.61711884 C-52.5691678 0.56423902 -45.63887151 0.51149242 -38.708574 0.4589057 C-35.03914643 0.43105763 -31.36971939 0.40314291 -27.70029354 0.37506866 C-23.60372921 0.34372894 -19.50716268 0.31268662 -15.41059589 0.28166962 C-14.19427479 0.27231888 -12.97795368 0.26296814 -11.72477436 0.25333405 C-10.04846188 0.24071281 -10.04846188 0.24071281 -8.33828449 0.22783661 C-6.88507785 0.21677509 -6.88507785 0.21677509 -5.4025135 0.20549011 C-3.60040414 0.19497572 -1.79778366 0.12523018 0 0 Z " fill="#FBA673" transform="translate(444.72578144073486,170.81012725830078)"/>
<path d="M0 0 C0.33 0 0.66 0 1 0 C1.02730462 1.87491693 1.04653244 3.74995225 1.0625 5.625 C1.07410156 6.66914062 1.08570313 7.71328125 1.09765625 8.7890625 C1.00117695 11.96130189 0.52813987 14.8741944 0 18 C-0.28648057 21.50074878 -0.4376755 25.00945636 -0.60546875 28.51757812 C-0.89620536 33.89620536 -0.89620536 33.89620536 -2 35 C-2.33 40.94 -2.66 46.88 -3 53 C10.86 53 24.72 53 39 53 C39 53.33 39 53.66 39 54 C24.48 54 9.96 54 -5 54 C-5.68724478 45.7530627 -6.04748161 38.48532727 -5.3125 30.375 C-5.22436035 29.34826172 -5.1362207 28.32152344 -5.04541016 27.26367188 C-4.16134186 17.97013823 -2.34715714 9.02402161 0 0 Z " fill="#41A5D9" transform="translate(29,120)"/>
<path d="M0 0 C1.15119827 -0.00274933 2.30239655 -0.00549866 3.48847961 -0.0083313 C4.74220367 -0.00114075 5.99592773 0.0060498 7.28764343 0.01345825 C8.62826529 0.01402272 9.96888777 0.01370511 11.30950928 0.01257324 C14.94138317 0.01200012 18.57312459 0.02374787 22.20496774 0.03772116 C26.00328666 0.05023523 29.80160871 0.05139955 33.59994507 0.05377197 C40.78924916 0.05998475 47.97849233 0.07639283 55.16776961 0.09647095 C63.35393647 0.11883624 71.54010626 0.12982497 79.72629607 0.13986182 C96.56278019 0.16075924 113.39920305 0.19593129 130.23564148 0.24050903 C130.23564148 0.57050903 130.23564148 0.90050903 130.23564148 1.24050903 C129.58610347 1.24289739 128.93656546 1.24528574 128.26734447 1.24774647 C112.42417955 1.30701824 96.58118842 1.38264555 80.73819256 1.47622395 C73.07646757 1.521089 65.4147881 1.56052478 57.75297546 1.58694458 C51.07084121 1.61000024 44.38885212 1.64348191 37.70683318 1.68921059 C34.1724507 1.71304143 30.63821108 1.73183628 27.10375023 1.73812294 C23.1471479 1.7453566 19.19090181 1.77587916 15.23442078 1.80813599 C13.49840103 1.80598335 13.49840103 1.80598335 11.72731018 1.80378723 C4.86716281 1.88254461 -2.54001162 2.05178314 -8.76435852 5.24050903 C-10.63480413 8.49999402 -11.26659794 11.53806514 -11.76435852 15.24050903 C-11.88939758 15.97011841 -12.01443665 16.69972778 -12.14326477 17.45144653 C-12.39948294 19.04064785 -12.59041316 20.64021169 -12.76435852 22.24050903 C-13.09435852 22.24050903 -13.42435852 22.24050903 -13.76435852 22.24050903 C-14.09291947 14.93915452 -14.27840798 8.78391148 -10.76435852 2.24050903 C-7.13247314 0.31269042 -4.07130265 -0.00751856 0 0 Z " fill="#E6B871" transform="translate(311.7643585205078,21.759490966796875)"/>
<path d="M0 0 C-16.54487098 11.02991399 -46.4630415 9.23788569 -65.375 7.125 C-66.08277588 7.04668945 -66.79055176 6.96837891 -67.51977539 6.88769531 C-71.09228777 6.43324144 -73.84568197 5.69940936 -77 4 C-76.14580475 4.01332367 -76.14580475 4.01332367 -75.27435303 4.0269165 C-69.2375311 4.11681672 -63.20090508 4.17631127 -57.16357422 4.21972656 C-54.92358656 4.23959199 -52.68364896 4.26669372 -50.44384766 4.30175781 C-37.27261069 4.50248487 -25.08355745 3.96459353 -12.25097656 0.86621094 C-8.08739729 -0.10151413 -4.26497615 -0.153573 0 0 Z " fill="#E48F88" transform="translate(357,321)"/>
<path d="M0 0 C10.28585921 -0.18641749 20.34035804 0.89154058 30.5390625 2.12109375 C30.5390625 2.45109375 30.5390625 2.78109375 30.5390625 3.12109375 C28.57114746 3.1053833 28.57114746 3.1053833 26.56347656 3.08935547 C21.69566578 3.05315328 16.8278669 3.0301924 11.95996094 3.01123047 C9.85316975 3.00117341 7.74639251 2.98752607 5.63964844 2.97021484 C2.61129309 2.94595375 -0.41687769 2.93460767 -3.4453125 2.92578125 C-4.85801422 2.91029739 -4.85801422 2.91029739 -6.29925537 2.89450073 C-7.17986633 2.89434967 -8.06047729 2.89419861 -8.96777344 2.89404297 C-9.74054626 2.88960175 -10.51331909 2.88516052 -11.30950928 2.88058472 C-13.74516217 3.15286734 -15.31524503 3.97210937 -17.4609375 5.12109375 C-20.1171875 5.5 -20.1171875 5.5 -22.9609375 5.68359375 C-26.84239811 5.92955729 -26.84239811 5.92955729 -30.6171875 6.7734375 C-32.4609375 7.12109375 -32.4609375 7.12109375 -35.4609375 5.12109375 C-23.57393414 2.42235487 -12.20942306 0.427192 0 0 Z " fill="#74B7E3" transform="translate(157.4609375,16.87890625)"/>
<path d="M0 0 C0.625 1.75 0.625 1.75 1 4 C0.68398331 4.62144897 0.36796661 5.24289795 0.04237366 5.88317871 C-1.08481324 8.1722362 -1.26578641 9.58956897 -1.30297852 12.11914062 C-1.31962051 12.92097778 -1.33626251 13.72281494 -1.35340881 14.5489502 C-1.36182297 15.40935913 -1.37023712 16.26976807 -1.37890625 17.15625 C-1.39590073 18.05436401 -1.4128952 18.95247803 -1.43040466 19.87780762 C-1.48346475 22.75179994 -1.52371782 25.62578247 -1.5625 28.5 C-1.6210382 32.26051934 -1.68525008 36.02090216 -1.75390625 39.78125 C-1.76982819 40.67948486 -1.78575012 41.57771973 -1.80215454 42.50317383 C-1.93562129 49.03615556 -2.29286724 55.50083021 -3 62 C-3.33 62 -3.66 62 -4 62 C-4.05107327 55.36551229 -4.08588901 48.73107605 -4.10986328 42.09643555 C-4.11986707 39.84348659 -4.13347436 37.59055043 -4.15087891 35.33764648 C-4.17537598 32.08313825 -4.18653966 28.82880297 -4.1953125 25.57421875 C-4.20563507 24.58105148 -4.21595764 23.58788422 -4.22659302 22.56462097 C-4.22914504 6.34371756 -4.22914504 6.34371756 0 0 Z " fill="#EED2A1" transform="translate(300,24)"/>
<path d="M0 0 C9.54885806 7.68060322 17.27950575 16.78556178 24 27 C24.43441406 27.64582031 24.86882812 28.29164062 25.31640625 28.95703125 C26.21871592 30.29949197 27.11098558 31.64869808 28 33 C27.67 33.66 27.34 34.32 27 35 C25.68 35 24.36 35 23 35 C22.80664062 34.36191406 22.61328125 33.72382812 22.4140625 33.06640625 C22.15367187 32.24011719 21.89328125 31.41382812 21.625 30.5625 C21.36976563 29.73878906 21.11453125 28.91507813 20.8515625 28.06640625 C20.19117773 25.82201984 20.19117773 25.82201984 18 25 C18 23.68 18 22.36 18 21 C17.071875 20.5359375 17.071875 20.5359375 16.125 20.0625 C11.54677108 17.77338554 11.04916295 15.78138022 9 11 C8.34 10.67 7.68 10.34 7 10 C7 9.34 7 8.68 7 8 C5.68 8 4.36 8 3 8 C2.67 6.35 2.34 4.7 2 3 C1.34 3 0.68 3 0 3 C0 2.01 0 1.02 0 0 Z " fill="#76BBE2" transform="translate(249,50)"/>
<path d="M0 0 C0.66 0.66 1.32 1.32 2 2 C1.68038007 9.4806283 -0.30733446 16.39829523 -2.375 23.5625 C-2.67921875 24.64724609 -2.9834375 25.73199219 -3.296875 26.84960938 C-4.95404954 32.681589 -6.77180731 38.3611688 -9 44 C-9.33 44 -9.66 44 -10 44 C-10.1953125 37.9453125 -10.1953125 37.9453125 -10 36 C-9.34 35.34 -8.68 34.68 -8 34 C-7.36999425 30.63559431 -6.97921006 27.26802482 -6.5625 23.87109375 C-6.376875 22.92363281 -6.19125 21.97617188 -6 21 C-5.34 20.67 -4.68 20.34 -4 20 C-1.83380249 13.52213664 -0.6523779 6.78473021 0 0 Z " fill="#E2928C" transform="translate(445,200)"/>
<path d="M0 0 C24.75 0 49.5 0 75 0 C75 0.33 75 0.66 75 1 C74.1127272 1.01030746 73.22545441 1.02061493 72.31129456 1.03123474 C63.96748429 1.12903425 55.62374785 1.23152315 47.28006077 1.33933926 C42.9900379 1.39460736 38.70000826 1.44803343 34.40991211 1.49731445 C30.27314564 1.54490086 26.13646464 1.59724132 21.99979973 1.65294075 C20.41810153 1.67339034 18.83637988 1.69209903 17.25464058 1.70907402 C15.04670822 1.7330607 12.8389388 1.76312256 10.63110352 1.79467773 C9.37201675 1.81022202 8.11292999 1.8257663 6.81568909 1.84178162 C4.09702459 1.68086804 4.09702459 1.68086804 3 3 C0.32941149 3.14115161 -2.32432238 3.04247107 -5 3 C-5 2.67 -5 2.34 -5 2 C-3.35 2 -1.7 2 0 2 C0 1.34 0 0.68 0 0 Z " fill="#5699DC" transform="translate(181,171)"/>
<path d="M0 0 C0.33 0 0.66 0 1 0 C1.05423638 1.91635217 1.09289963 3.83314925 1.125 5.75 C1.14820313 6.81734375 1.17140625 7.8846875 1.1953125 8.984375 C0.99714949 12.04401192 0.3521676 13.33679538 -1 16 C-1.2635234 18.20055624 -1.44509723 20.41183282 -1.5625 22.625 C-1.90277778 28.80555556 -1.90277778 28.80555556 -3 31 C-3.39227838 33.70872518 -3.74569498 36.40751693 -4.0625 39.125 C-4.15337891 39.87910156 -4.24425781 40.63320312 -4.33789062 41.41015625 C-4.56190852 43.27304188 -4.78138573 45.13647252 -5 47 C-5.33 47 -5.66 47 -6 47 C-5.69595195 36.46316227 -5.23284211 26.04564522 -3.5625 15.625 C-3.37917114 14.47777466 -3.37917114 14.47777466 -3.19213867 13.30737305 C-2.41783871 8.76169395 -1.34416157 4.41071199 0 0 Z " fill="#81C0E4" transform="translate(29,120)"/>
<path d="M0 0 C0.66 0 1.32 0 2 0 C2.33 11.88 2.66 23.76 3 36 C2.01 36.495 2.01 36.495 1 37 C-0.79742484 33.40515031 -0.44100441 29.21570689 -0.625 25.25 C-0.67003662 24.30874268 -0.71507324 23.36748535 -0.76147461 22.39770508 C-1.07108295 14.85059955 -0.82107088 7.51595651 0 0 Z " fill="#7AC392" transform="translate(172,176)"/>
<path d="M0 0 C1 3 1 3 1 5 C0.01 5.33 -0.98 5.66 -2 6 C-2.33 6.66 -2.66 7.32 -3 8 C-3.33 8.66 -3.66 9.32 -4 10 C-4.99 10.33 -5.98 10.66 -7 11 C-7.73323796 13.01508358 -7.73323796 13.01508358 -8 15 C-8.66 15 -9.32 15 -10 15 C-10.12375 16.134375 -10.2475 17.26875 -10.375 18.4375 C-10.58125 19.613125 -10.7875 20.78875 -11 22 C-11.66 22.33 -12.32 22.66 -13 23 C-13 22.34 -13 21.68 -13 21 C-14.32 21.33 -15.64 21.66 -17 22 C-15.46889666 16.99776176 -12.46019829 13.71306584 -9.0625 9.875 C-8.25522461 8.94494141 -8.25522461 8.94494141 -7.43164062 7.99609375 C-5.03040406 5.24251791 -2.60466307 2.56377732 0 0 Z " fill="#6CB2E2" transform="translate(67,54)"/>
<path d="M0 0 C1.32 0 2.64 0 4 0 C-0.13691231 9.27733305 -10.00993006 15.24714965 -18 21 C-18.5625 19.0625 -18.5625 19.0625 -19 17 C-18 16 -18 16 -15.4375 15.9375 C-14.633125 15.958125 -13.82875 15.97875 -13 16 C-13 15.34 -13 14.68 -13 14 C-12.34 14 -11.68 14 -11 14 C-10.67 12.68 -10.34 11.36 -10 10 C-8.35 9.67 -6.7 9.34 -5 9 C-4.9175 8.443125 -4.835 7.88625 -4.75 7.3125 C-3.743638 4.2095505 -2.26533959 2.33006358 0 0 Z " fill="#E3857B" transform="translate(407,285)"/>
<path d="M0 0 C0.66 0.33 1.32 0.66 2 1 C1 4 1 4 -2 6 C-2 6.66 -2 7.32 -2 8 C-2.66 8 -3.32 8 -4 8 C-3.67 9.32 -3.34 10.64 -3 12 C-7.12168689 13.62950412 -9.70700357 14.26264601 -14 13 C-11.24160796 9.31999566 -8.37924618 6.50494111 -4.75 3.6875 C-3.41195312 2.64142578 -3.41195312 2.64142578 -2.046875 1.57421875 C-1.37140625 1.05472656 -0.6959375 0.53523438 0 0 Z " fill="#4FA8E7" transform="translate(82,41)"/>
<path d="M0 0 C0.66 0.33 1.32 0.66 2 1 C-1 3 -1 3 -4 3 C-3.67 3.99 -3.34 4.98 -3 6 C-5.31009661 9.00312559 -6.69281564 10.70442647 -10.453125 11.5546875 C-13.98202105 11.89519501 -17.45599259 12 -21 12 C-14.41866865 7.31329434 -7.52154948 3.01566024 0 0 Z " fill="#68B4E6" transform="translate(105,28)"/>
<path d="M0 0 C3.3533466 3.3533466 4.25553277 7.94476118 5.75 12.375 C6.09160156 13.3340625 6.43320312 14.293125 6.78515625 15.28125 C7.09839844 16.20679687 7.41164063 17.13234375 7.734375 18.0859375 C8.17088379 19.3551001 8.17088379 19.3551001 8.61621094 20.64990234 C9.07756251 23.47494702 8.51334604 24.6258956 7 27 C6.34 27 5.68 27 5 27 C5 24.69 5 22.38 5 20 C4.01 20 3.02 20 2 20 C1.93941406 19.05898437 1.87882812 18.11796875 1.81640625 17.1484375 C1.69072266 15.28058594 1.69072266 15.28058594 1.5625 13.375 C1.48128906 12.14523438 1.40007812 10.91546875 1.31640625 9.6484375 C1.03336056 6.38467612 0.58961047 3.22056141 0 0 Z " fill="#6CB7E9" transform="translate(286,106)"/>
<path d="M0 0 C0.70125 0.0825 1.4025 0.165 2.125 0.25 C4.32692224 3.55288336 4.36459968 4.52462727 4.3203125 8.35546875 C4.31386719 9.33837891 4.30742187 10.32128906 4.30078125 11.33398438 C4.28402344 12.35814453 4.26726562 13.38230469 4.25 14.4375 C4.24097656 15.47326172 4.23195313 16.50902344 4.22265625 17.57617188 C4.1990786 20.13434685 4.1661703 22.69205748 4.125 25.25 C3.795 25.25 3.465 25.25 3.125 25.25 C3.06441406 24.14140625 3.00382812 23.0328125 2.94140625 21.890625 C2.85697049 20.4270718 2.77232401 18.96353075 2.6875 17.5 C2.64818359 16.77039063 2.60886719 16.04078125 2.56835938 15.2890625 C2.36352902 11.8227027 2.0397998 8.59666974 1.125 5.25 C0.465 5.25 -0.195 5.25 -0.875 5.25 C-0.875 4.59 -0.875 3.93 -0.875 3.25 C-4.835 3.25 -8.795 3.25 -12.875 3.25 C-9.51711006 -0.10788994 -4.55398494 0.39599869 0 0 Z " fill="#E68F79" transform="translate(444.875,170.75)"/>
<path d="M0 0 C0.99 0 1.98 0 3 0 C1.69281227 4.38330612 -0.00038013 8.00705491 -2.4375 11.875 C-3.03433594 12.84179688 -3.63117188 13.80859375 -4.24609375 14.8046875 C-4.82488281 15.52914063 -5.40367187 16.25359375 -6 17 C-6.99 17 -7.98 17 -9 17 C-9 16.01 -9 15.02 -9 14 C-8.34 14 -7.68 14 -7 14 C-7.33 12.35 -7.66 10.7 -8 9 C-6.68 8.34 -5.36 7.68 -4 7 C-3.67 7.33 -3.34 7.66 -3 8 C-2.01 5.36 -1.02 2.72 0 0 Z " fill="#E6756E" transform="translate(426,258)"/>
<path d="M0 0 C0.99 0 1.98 0 3 0 C3.67057887 1.7902061 4.3363469 3.58221489 5 5.375 C5.556875 6.87160156 5.556875 6.87160156 6.125 8.3984375 C7 11 7 11 7 13 C7.66 13 8.32 13 9 13 C9.66 15.64 10.32 18.28 11 21 C10.01 21 9.02 21 8 21 C6.84791705 18.4401499 5.70320627 15.87741487 4.5625 13.3125 C4.07426758 12.2306543 4.07426758 12.2306543 3.57617188 11.12695312 C1.9407158 7.43453168 0.56510666 4.03533913 0 0 Z " fill="#E4938A" transform="translate(184,236)"/>
<path d="M0 0 C7.0474558 -0.07602812 14.09480594 -0.12859061 21.14257812 -0.16479492 C23.54040479 -0.17988682 25.93820383 -0.2003625 28.3359375 -0.22631836 C31.78131933 -0.26268311 35.22633637 -0.27972248 38.671875 -0.29296875 C39.74491882 -0.30845261 40.81796265 -0.32393646 41.92352295 -0.33988953 C42.92425842 -0.34011612 43.9249939 -0.34034271 44.95605469 -0.34057617 C45.83541687 -0.34723801 46.71477905 -0.35389984 47.62078857 -0.36076355 C50.47206635 0.07158016 51.85719183 1.11924975 54 3 C53.67 3.66 53.34 4.32 53 5 C51.02 4.34 49.04 3.68 47 3 C47 2.34 47 1.68 47 1 C31.49 1 15.98 1 0 1 C0 0.67 0 0.34 0 0 Z " fill="#E4C994" transform="translate(395,21)"/>
<path d="M0 0 C0.33 0 0.66 0 1 0 C0.85780436 2.20857055 0.71108153 4.41684987 0.5625 6.625 C0.48128906 7.85476562 0.40007812 9.08453125 0.31640625 10.3515625 C0.03336056 13.61532388 -0.41038953 16.77943859 -1 20 C-1.99 19.67 -2.98 19.34 -4 19 C-4 18.34 -4 17.68 -4 17 C-4.99 17 -5.98 17 -7 17 C-6.67 15.68 -6.34 14.36 -6 13 C-5.34 13 -4.68 13 -4 13 C-3.67 11.35 -3.34 9.7 -3 8 C-2.34 8 -1.68 8 -1 8 C-1.020625 6.865625 -1.04125 5.73125 -1.0625 4.5625 C-1 1 -1 1 0 0 Z " fill="#ECC68D" transform="translate(449,152)"/>
<path d="M0 0 C0.33 0 0.66 0 1 0 C1 15.18 1 30.36 1 46 C0.34 45.67 -0.32 45.34 -1 45 C-1.6875 42.5 -1.6875 42.5 -2 40 C-1.505 39.505 -1.505 39.505 -1 39 C-0.83976438 36.11747355 -0.74045971 33.25621473 -0.68359375 30.37109375 C-0.66281265 29.50686295 -0.64203156 28.64263214 -0.62062073 27.75221252 C-0.55502886 24.98072555 -0.49619582 22.20914079 -0.4375 19.4375 C-0.39432392 17.56314077 -0.35070994 15.68879157 -0.30664062 13.81445312 C-0.19933773 9.20973664 -0.09809785 4.60492142 0 0 Z " fill="#FEEDCC" transform="translate(297,91)"/>
<path d="M0 0 C1.58409994 0.11487748 3.16728963 0.24234508 4.75 0.375 C6.07257813 0.47941406 6.07257813 0.47941406 7.421875 0.5859375 C10.01140658 1.00183197 11.69374969 1.80843734 14 3 C17.16695956 3.16724737 17.16695956 3.16724737 20 3 C20.66 4.32 21.32 5.64 22 7 C14.16008251 6.52960495 7.27928865 3.77062812 0 1 C0 0.67 0 0.34 0 0 Z " fill="#E39690" transform="translate(258,318)"/>
<path d="M0 0 C3.4375 0.8125 3.4375 0.8125 7 2 C7.33 2.99 7.66 3.98 8 5 C9.32 5 10.64 5 12 5 C13.5625 6.375 13.5625 6.375 15 8 C15.99 8.66 16.98 9.32 18 10 C18 10.66 18 11.32 18 12 C14.12750294 10.58220053 10.79251936 8.77015212 7.3125 6.5625 C5.88357422 5.66724609 5.88357422 5.66724609 4.42578125 4.75390625 C2 3 2 3 0 0 Z " fill="#E0867B" transform="translate(230,301)"/>
<path d="M0 0 C1.88005784 2.82008676 2.45675093 4.34323664 3.125 7.5625 C3.29257812 8.34753906 3.46015625 9.13257812 3.6328125 9.94140625 C4 12 4 12 4 14 C3.34 14 2.68 14 2 14 C1.34 13.01 0.68 12.02 0 11 C-0.99 11 -1.98 11 -3 11 C-1.7826087 1.7826087 -1.7826087 1.7826087 0 0 Z " fill="#44A4E4" transform="translate(283,98)"/>
<path d="M0 0 C4.54075781 4.14010271 7.71842138 8.82390176 11 14 C10.67 14.66 10.34 15.32 10 16 C8.68 16 7.36 16 6 16 C5.80664062 15.36191406 5.61328125 14.72382812 5.4140625 14.06640625 C5.15367187 13.24011719 4.89328125 12.41382812 4.625 11.5625 C4.24214844 10.32693359 4.24214844 10.32693359 3.8515625 9.06640625 C3.19117773 6.82201984 3.19117773 6.82201984 1 6 C0.375 2.9375 0.375 2.9375 0 0 Z " fill="#88C3E6" transform="translate(266,69)"/>
<path d="M0 0 C1.32 0.66 2.64 1.32 4 2 C2.25 7.75 2.25 7.75 0 10 C-0.99 9.34 -1.98 8.68 -3 8 C-3.1875 5.375 -3.1875 5.375 -3 3 C-2.34 3 -1.68 3 -1 3 C-0.67 2.01 -0.34 1.02 0 0 Z " fill="#EC766F" transform="translate(429,248)"/>
<path d="M0 0 C0.33 0 0.66 0 1 0 C0.88936784 3.3756301 0.75891985 6.75021989 0.625 10.125 C0.5940625 11.07632813 0.563125 12.02765625 0.53125 13.0078125 C0.32252954 18.01710348 -0.05505365 22.30366613 -2 27 C-2.33 27 -2.66 27 -3 27 C-3.0270043 25.54176788 -3.04639787 24.08339325 -3.0625 22.625 C-3.07410156 21.81289062 -3.08570312 21.00078125 -3.09765625 20.1640625 C-3 18 -3 18 -2 16 C-1.79459652 13.85752762 -1.63410745 11.71061398 -1.5 9.5625 C-1.28369698 6.10551422 -1.09651096 3.28953289 0 0 Z " fill="#3FA0E3" transform="translate(28,133)"/>
<path d="M0 0 C-2.28874173 1.33858524 -4.58069656 2.67101014 -6.875 4 C-7.52597656 4.3815625 -8.17695313 4.763125 -8.84765625 5.15625 C-13.7734375 8 -13.7734375 8 -16 8 C-16 7.34 -16 6.68 -16 6 C-15.01 6 -14.02 6 -13 6 C-13 5.34 -13 4.68 -13 4 C-12.34 3.34 -11.68 2.68 -11 2 C-10.01 2 -9.02 2 -8 2 C-8 1.34 -8 0.68 -8 0 C-4.90645403 -0.99435406 -3.09720845 -0.87840996 0 0 Z " fill="#E18F82" transform="translate(388,307)"/>
<path d="M0 0 C0.33 0 0.66 0 1 0 C1.76681614 8.62242152 1.76681614 8.62242152 -0.11328125 12 C-1.5 13.625 -1.5 13.625 -4 16 C-5 14 -5 14 -4.00390625 10.7421875 C-3.53110016 9.4502948 -3.05028031 8.16131362 -2.5625 6.875 C-2.31951172 6.21628906 -2.07652344 5.55757813 -1.82617188 4.87890625 C-1.22421679 3.25008662 -0.61297588 1.62470425 0 0 Z " fill="#7DC0E7" transform="translate(36,99)"/>
<path d="M0 0 C5.83096952 3.10157953 10.86601899 6.85556181 16 11 C15.01 11.495 15.01 11.495 14 12 C8.27272727 9.54545455 8.27272727 9.54545455 7 7 C6.154375 6.505 5.30875 6.01 4.4375 5.5 C3.633125 5.005 2.82875 4.51 2 4 C2 3.34 2 2.68 2 2 C1.34 2 0.68 2 0 2 C0 1.34 0 0.68 0 0 Z " fill="#70B4DE" transform="translate(233,38)"/>
<path d="M0 0 C0.99 0.33 1.98 0.66 3 1 C3 2.32 3 3.64 3 5 C3.99 5.33 4.98 5.66 6 6 C7.38576923 7.62332967 8.72641268 9.28724465 10 11 C9.01 11.99 8.02 12.98 7 14 C5.82807953 12.04480616 4.6626071 10.0857461 3.5 8.125 C2.8503125 7.03445313 2.200625 5.94390625 1.53125 4.8203125 C0 2 0 2 0 0 Z " fill="#E2847E" transform="translate(194,258)"/>
<path d="M0 0 C5.10791367 7.6618705 5.10791367 7.6618705 4.6875 12.875 C4.460625 13.90625 4.23375 14.9375 4 16 C2.59496465 13.40608858 1.42294192 10.73026086 0.3125 8 C-0.09548828 7.01 -0.09548828 7.01 -0.51171875 6 C-1.08433496 3.65456399 -0.75352292 2.26562596 0 0 Z " fill="#E5928D" transform="translate(178,212)"/>
<path d="M0 0 C3.40686225 3.40686225 4.76723573 8.38733985 5.19140625 13.1484375 C5.18810331 14.76687972 5.10309523 16.38484134 5 18 C2.47580407 15.47580407 2.21042962 13.57642137 1.375 10.125 C1.11460937 9.07570313 0.85421875 8.02640625 0.5859375 6.9453125 C0 4 0 4 0 0 Z " fill="#83C0E7" transform="translate(286,106)"/>
<path d="M0 0 C0.99 0 1.98 0 3 0 C2.74438677 2.3431213 2.40729228 4.67843403 2 7 C1.01 7.495 1.01 7.495 0 8 C0 7.34 0 6.68 0 6 C-1.32 6.33 -2.64 6.66 -4 7 C-2.92598892 4.08482708 -2.22189824 2.22189824 0 0 Z " fill="#5AAFE6" transform="translate(54,69)"/>
<path d="M0 0 C5.94 0 11.88 0 18 0 C18 0.33 18 0.66 18 1 C17.00097656 1.06058594 16.00195312 1.12117187 14.97265625 1.18359375 C13.68230469 1.26738281 12.39195312 1.35117188 11.0625 1.4375 C9.77472656 1.51871094 8.48695313 1.59992188 7.16015625 1.68359375 C4.13976043 1.64919188 4.13976043 1.64919188 3 3 C0.32941149 3.14115161 -2.32432238 3.04247107 -5 3 C-5 2.67 -5 2.34 -5 2 C-3.35 2 -1.7 2 0 2 C0 1.34 0 0.68 0 0 Z " fill="#6795CC" transform="translate(181,171)"/>
<path d="M0 0 C0.99 0 1.98 0 3 0 C1.58707905 4.8274799 -0.42974154 8.7162359 -3 13 C-3.33 11.68 -3.66 10.36 -4 9 C-3.34 9 -2.68 9 -2 9 C-1.7834375 7.329375 -1.7834375 7.329375 -1.5625 5.625 C-1 2 -1 2 0 0 Z " fill="#E08C87" transform="translate(426,258)"/>
<path d="M0 0 C3.42931954 3.7559214 4.56429083 8.23466745 6 13 C3.56070254 11.07423885 1.19909405 9.19909405 -1 7 C-0.625 3.375 -0.625 3.375 0 0 Z " fill="#7BC0EB" transform="translate(277,85)"/>
<path d="M0 0 C0 2 0 4 0 6 C-1.75 7.0625 -1.75 7.0625 -4 8 C-5.32 7.67 -6.64 7.34 -8 7 C-5.36 4.69 -2.72 2.38 0 0 Z " fill="#66B1E2" transform="translate(76,46)"/>
<path d="M0 0 C-0.33 3.3 -0.66 6.6 -1 10 C-1.66 10 -2.32 10 -3 10 C-3.33 10.66 -3.66 11.32 -4 12 C-3.88648483 10.18674449 -3.75887039 8.37436643 -3.625 6.5625 C-3.55539062 5.55316406 -3.48578125 4.54382813 -3.4140625 3.50390625 C-3.27742188 2.67761719 -3.14078125 1.85132813 -3 1 C-1 0 -1 0 0 0 Z " fill="#DD8274" transform="translate(442,220)"/>
<path d="M0 0 C0 0.66 0 1.32 0 2 C-1.65 2 -3.3 2 -5 2 C-5.33 2.99 -5.66 3.98 -6 5 C-8.64 5 -11.28 5 -14 5 C-11.56585763 3.37723842 -9.68680554 2.38255208 -7 1.375 C-6.319375 1.11460938 -5.63875 0.85421875 -4.9375 0.5859375 C-3 0 -3 0 0 0 Z " fill="#7EBEE5" transform="translate(121,23)"/>
<path d="M0 0 C0.98120464 3.05263664 0.98120464 4.94736336 0 8 C-0.99 8 -1.98 8 -3 8 C-3 8.66 -3 9.32 -3 10 C-3.66 10 -4.32 10 -5 10 C-3.84414715 6.08788267 -2.64465038 3.1254959 0 0 Z " fill="#72B7E4" transform="translate(49,76)"/>
<path d="M0 0 C5.78898419 -0.20674944 10.42932723 0.40837921 16 2 C16 2.33 16 2.66 16 3 C10.22192976 3.2358396 5.48675196 2.86783046 0 1 C0 0.67 0 0.34 0 0 Z " fill="#68AFDD" transform="translate(184,20)"/>
<path d="M0 0 C5.78461538 3.32307692 5.78461538 3.32307692 6.875 6.75 C6.936875 7.86375 6.936875 7.86375 7 9 C3.46352496 7.32482761 2.2088437 6.50719183 0.6875 2.8125 C0.460625 1.884375 0.23375 0.95625 0 0 Z " fill="#5EADDD" transform="translate(259,62)"/>
<path d="M0 0 C0.33 0 0.66 0 1 0 C1 4.95 1 9.9 1 15 C0.34 14.67 -0.32 14.34 -1 14 C-1.6875 11.5 -1.6875 11.5 -2 9 C-1.67 8.67 -1.34 8.34 -1 8 C-0.76924918 6.65252916 -0.58846937 5.29622435 -0.4375 3.9375 C-0.293125 2.638125 -0.14875 1.33875 0 0 Z " fill="#E5E1C0" transform="translate(297,122)"/>
<path d="M0 0 C2.64 0.66 5.28 1.32 8 2 C7.67 3.65 7.34 5.3 7 7 C5.83040013 6.02433888 4.66438823 5.044375 3.5 4.0625 C2.8503125 3.51722656 2.200625 2.97195313 1.53125 2.41015625 C1.0259375 1.94480469 0.520625 1.47945313 0 1 C0 0.67 0 0.34 0 0 Z " fill="#E3847F" transform="translate(214,287)"/>
<path d="M0 0 C4.3177458 0.50797009 8.03302114 1.19682779 12 3 C10.265625 4.1171875 10.265625 4.1171875 8 5 C5.859375 4.3203125 5.859375 4.3203125 3.75 3.125 C3.04359375 2.73570312 2.3371875 2.34640625 1.609375 1.9453125 C1.07828125 1.63335937 0.5471875 1.32140625 0 1 C0 0.67 0 0.34 0 0 Z " fill="#E28A81" transform="translate(248,313)"/>
<path d="M0 0 C1.74627478 2.61941217 2.38722388 4.03824877 3 7 C1.68 7 0.36 7 -1 7 C-1.33 5.02 -1.66 3.04 -2 1 C-1.34 0.67 -0.68 0.34 0 0 Z " fill="#68B7E8" transform="translate(283,98)"/>
<path d="M0 0 C2.99324263 1.0975223 3.84610901 1.67682892 5.25 4.625 C5.4975 5.40875 5.745 6.1925 6 7 C4.35 7 2.7 7 1 7 C0.67 4.69 0.34 2.38 0 0 Z " fill="#6EB4E4" transform="translate(271,78)"/>
<path d="M0 0 C0.85712696 2.39995548 1.22584094 3.51605512 0.125 5.875 C-0.24625 6.57625 -0.6175 7.2775 -1 8 C-1.38290462 9.99110401 -1.72604615 11.99100513 -2 14 C-2.33 14 -2.66 14 -3 14 C-3.29341888 8.32723489 -3.00559652 5.00932754 0 0 Z " fill="#EFD4A7" transform="translate(300,24)"/>
<path d="M0 0 C0.33 0.66 0.66 1.32 1 2 C1.66 2 2.32 2 3 2 C3.66 4.64 4.32 7.28 5 10 C4.01 10 3.02 10 2 10 C2 7.69 2 5.38 2 3 C1.34 3 0.68 3 0 3 C0 2.01 0 1.02 0 0 Z " fill="#E37D71" transform="translate(190,247)"/>
<path d="M0 0 C0.53625 0.226875 1.0725 0.45375 1.625 0.6875 C-1.32683101 3.63933101 -4.33011947 3.77413988 -8.375 4.6875 C-8.375 4.0275 -8.375 3.3675 -8.375 2.6875 C-2.95961538 -0.38942308 -2.95961538 -0.38942308 0 0 Z " fill="#469EE0" transform="translate(109.375,28.3125)"/>
<path d="M0 0 C0.598125 0.350625 1.19625 0.70125 1.8125 1.0625 C1.8125 1.7225 1.8125 2.3825 1.8125 3.0625 C-1.125 2.6875 -1.125 2.6875 -4.1875 2.0625 C-4.5175 1.4025 -4.8475 0.7425 -5.1875 0.0625 C-2.1875 -0.9375 -2.1875 -0.9375 0 0 Z " fill="#E38178" transform="translate(278.1875,321.9375)"/>
<path d="M0 0 C1.64826111 2.96687001 2.44271087 5.65626525 3 9 C2.01 9.495 2.01 9.495 1 10 C-0.60725635 6.78548731 -0.05748185 3.56387464 0 0 Z " fill="#7FD6B3" transform="translate(24,310)"/>
<path d="M0 0 C2.475 0.495 2.475 0.495 5 1 C5 3.64 5 6.28 5 9 C4.67 9 4.34 9 4 9 C3.67 6.69 3.34 4.38 3 2 C2.01 2 1.02 2 0 2 C0 1.34 0 0.68 0 0 Z " fill="#DC7965" transform="translate(443,171)"/>
<path d="" fill="#FFFFFF" transform="translate(0,0)"/>
<path d="" fill="#FFFFFF" transform="translate(0,0)"/>
<path d="" fill="#FFFFFF" transform="translate(0,0)"/>
<path d="" fill="#FFFFFF" transform="translate(0,0)"/>
<path d="" fill="#FFFFFF" transform="translate(0,0)"/>
<path d="" fill="#FFFFFF" transform="translate(0,0)"/>
<path d="" fill="#FFFFFF" transform="translate(0,0)"/>
<path d="" fill="#FFFFFF" transform="translate(0,0)"/>
<path d="" fill="#FFFFFF" transform="translate(0,0)"/>
<path d="" fill="#FFFFFF" transform="translate(0,0)"/>
<path d="" fill="#FFFFFF" transform="translate(0,0)"/>
<path d="" fill="#FFFFFF" transform="translate(0,0)"/>
<path d="" fill="#FFFFFF" transform="translate(0,0)"/>
<path d="" fill="#FFFFFF" transform="translate(0,0)"/>
<path d="" fill="#FFFFFF" transform="translate(0,0)"/>
<path d="" fill="#FFFFFF" transform="translate(0,0)"/>
<path d="" fill="#FFFFFF" transform="translate(0,0)"/>
<path d="" fill="#FFFFFF" transform="translate(0,0)"/>
<path d="" fill="#FFFFFF" transform="translate(0,0)"/>
<path d="" fill="#FFFFFF" transform="translate(0,0)"/>
<path d="" fill="#FFFFFF" transform="translate(0,0)"/>
<path d="" fill="#FFFFFF" transform="translate(0,0)"/>
<path d="" fill="#FFFFFF" transform="translate(0,0)"/>
<path d="" fill="#FFFFFF" transform="translate(0,0)"/>
<path d="" fill="#FFFFFF" transform="translate(0,0)"/>
</svg>
